# xmcd CD database file
#
# Track frame offsets:
#	195
#	26517
#	53042
#	82887
#	107750
#	113172
#	120082
#	132655
#	133825
#	142710
#	163407
#	167897
#	183035
#
# Disc length: 2920 seconds
#
# Revision: 0
# Processed by: cddbd v1.4PL0 Copyright (c) Steve Scherf et al.
# Submitted via: CDex 1.50beta10
#
DISCID=a70b660d
DTITLE=Johnny Copeland and His Texas Blues Machine - The Three Sides Of Johnny Clyde Copeland
DYEAR=1993
DGENRE=Blues
TTITLE0=Cut Off My Right Arm
TTITLE1=When Rain Starts Falling
TTITLE2=Nobody But You
TTITLE3=Texas Party
TTITLE4=As Real As It Gets (Commercial)
TTITLE5=Short Interview (#1)
TTITLE6=Daily Bread
TTITLE7=Acceptance of "Bluesman Of The Year"
TTITLE8=Shuffle In C
TTITLE9=Johnny's Gone
TTITLE10=Short Interview (#2)
TTITLE11=I'm A Boogie Woogie Man
TTITLE12=My Woman Has A Black Cat Bone
EXTD=YEAR: 1993
EXTT0=
EXTT1=
EXTT2=
EXTT3=
EXTT4=
EXTT5=
EXTT6=
EXTT7=
EXTT8=
EXTT9=
EXTT10=
EXTT11=
EXTT12=
PLAYORDER=
